<svg width="146" height="50" viewBox="0 0 146 50" fill="none" xmlns="http://www.w3.org/2000/svg">
<path d="M31.9769 25.666L28.1898 25.6552C26.2945 31.2508 23.6682 36.8301 21.7012 42.4257C21.3949 43.2979 20.9954 44.3377 20.6138 45.1685C21.2373 42.1211 22.2888 38.4232 23.0645 35.3506C23.8331 32.3086 24.6052 28.6233 25.4794 25.675C24.2308 25.6624 22.9821 25.657 21.7317 25.6606L18.6218 40.939C18.0413 43.7683 17.4287 47.2734 16.7318 49.9928L21.4594 49.9982C22.6059 47.4914 23.7023 44.8369 24.7968 42.2923L30.3288 29.4504C30.825 28.2971 31.4323 26.7617 31.9751 25.6642L31.9769 25.666Z" fill="url(#paint0_linear_174_682)"/>
<path d="M96.4899 39.0629C95.9112 35.9903 92.744 33.4025 94.6447 30.2037C94.917 29.7478 95.3613 29.1711 95.9292 29.1477C96.807 29.7784 95.9524 31.9248 95.6963 32.7844L99.1591 32.7916C100.033 29.4486 100.865 25.2317 95.707 25.693C94.1216 25.9778 93.0844 26.6031 92.1761 27.9222C90.8504 29.9298 89.9332 33.0583 90.3847 35.4407C90.9543 38.4466 93.7293 40.4992 92.5308 43.7953C92.2997 44.4315 91.6333 46.5652 90.7519 46.5273C89.3223 46.4679 90.3703 43.6043 90.605 42.8762L87.0239 42.8618C86.3575 45.1018 85.2522 48.8683 88.4123 49.818C89.1092 50.0288 90.0533 50.0361 90.7734 49.9297C92.5362 49.5261 93.7257 48.8737 94.7056 47.2482C96.0868 44.8604 97.0094 41.8202 96.4899 39.0611V39.0629Z" fill="url(#paint1_linear_174_682)"/>
<path d="M140.102 32.7952C141.449 29.4162 141.494 25.3308 136.682 25.6858C135.054 26.0228 133.959 26.7166 133.066 28.1331C131.864 30.1623 130.919 33.0637 131.401 35.4335C131.978 38.2646 134.592 40.4542 133.63 43.5646C133.365 44.417 132.657 46.8986 131.434 46.4372C130.606 45.574 131.288 43.862 131.643 42.8762L128.076 42.8564C126.898 46.2768 126.496 50.4271 131.53 49.964C133.25 49.6576 134.529 49.0647 135.548 47.5203C137 45.2388 137.99 42.0581 137.569 39.3567C137.037 35.9453 133.564 33.3556 135.869 29.8325C136.152 29.4 136.541 29.0666 137.039 29.3333C137.65 30.1983 137.01 31.8202 136.727 32.7808L140.102 32.7952Z" fill="url(#paint2_linear_174_682)"/>
<path d="M57.7219 42.0292L56.4087 42.022C56.0379 43.0745 55.2981 46.3471 53.9312 46.2624C53.6732 46.1074 53.5496 45.9831 53.4923 45.6767C53.3436 44.8766 57.523 32.4474 58.1106 30.9318C58.2897 30.4704 58.519 30.0001 58.8361 29.6162C59.0171 29.3982 59.1765 29.2648 59.4506 29.1819C60.8587 29.4901 59.5276 32.332 59.2446 33.2331L62.8346 33.2241C63.9668 29.7514 65.1653 25.1956 59.576 25.6372C55.4754 26.4229 54.6334 30.4885 53.4421 33.9666C52.2347 37.4915 51.0559 41.0741 50.0294 44.6513C48.1861 51.1173 55.4324 51.4273 57.9816 47.1328C58.9759 45.4587 59.3574 43.8133 60.0686 42.0382L57.7219 42.0256V42.0292Z" fill="url(#paint3_linear_174_682)"/>
<path d="M121.594 45.938C122.303 43.7521 122.995 41.3102 123.742 39.1801L127.618 39.1855C128.038 37.9078 128.563 36.4192 128.874 35.1325L125.014 35.1163C125.512 33.5809 126.225 31.1084 126.787 29.6865C128.138 29.6865 129.524 29.6739 130.872 29.6937L132.169 25.6642C129.612 25.6606 127.004 25.6876 124.453 25.6552C123.717 28.1619 122.832 30.7948 122.036 33.2908L116.716 50L124.625 49.9964C125.198 48.6502 125.759 47.3022 126.311 45.9488L123.713 45.9416L121.594 45.9362V45.938Z" fill="url(#paint4_linear_174_682)"/>
<path d="M30.7517 45.9002C31.3984 44.536 32.3909 42.851 33.1379 41.5066L37.4194 33.799C39.2252 30.5461 40.1549 29.2648 41.1671 25.6245L32.8889 25.6209C32.6363 26.7094 31.9985 28.58 31.6205 29.6865L35.8895 29.7009C32.7294 35.4605 29.3418 41.1354 26.2229 46.9184C25.759 47.7798 25.5189 49.016 25.1517 49.9441C27.6937 49.964 31.144 50.0487 33.6592 49.9477C34.1429 48.7619 34.8917 47.0788 35.284 45.9038L30.7535 45.8966L30.7517 45.9002Z" fill="url(#paint5_linear_174_682)"/>
<path d="M49.8248 28.9494C50.2476 28.1061 50.6525 26.5851 50.9176 25.6372L42.7182 25.6281C42.2901 26.8986 41.7688 28.407 41.4338 29.6991L45.6454 29.7118C42.6197 35.5416 38.9813 41.1822 35.9538 47.0229C35.574 47.7546 35.2049 49.1404 34.9506 49.9676C37.6789 49.9712 40.7064 50.0414 43.4097 49.9604C43.9704 48.643 44.5168 47.2067 45.0901 45.9218L40.5058 45.9128C43.3685 40.2091 46.9639 34.6748 49.8248 28.9513V28.9494Z" fill="url(#paint6_linear_174_682)"/>
<path d="M112.376 45.9218C112.833 44.2278 113.465 42.3771 114.005 40.6939L117.115 30.9552C117.657 29.2468 118.302 27.36 118.786 25.648L115.164 25.6408C114.621 27.8376 113.671 30.3677 113.001 32.5879C111.269 38.3421 109.135 44.226 107.496 49.9748C108.433 49.9784 115.024 50.0739 115.346 49.8595C115.821 48.5421 116.31 47.232 116.817 45.9272L112.378 45.92L112.376 45.9218Z" fill="url(#paint7_linear_174_682)"/>
<path d="M78.4576 25.6552L73.4792 41.2507C72.6713 43.7899 71.36 47.486 70.7169 49.9946H74.2926L77.6282 39.5081C79.5146 39.4792 79.2208 40.3262 78.7962 41.8184C77.9507 44.5882 77.089 47.1761 76.3778 49.9874C77.5583 49.9982 78.7407 50 79.923 49.9964C80.301 48.6124 80.7023 47.2355 81.1269 45.8659C81.7575 43.853 82.723 41.4399 82.7374 39.3279C82.7392 38.8341 82.5976 38.5836 82.3665 38.1691C82.2949 38.0393 82.2196 37.9114 82.1444 37.7834C84.2243 36.7076 84.8566 34.8081 85.5087 32.7123C88.0042 24.6838 83.9484 25.7651 78.4594 25.657L78.4576 25.6552ZM81.0964 34.673C80.8904 35.1379 80.6253 35.3992 80.2043 35.6659C79.6292 35.8137 79.3731 35.8065 78.7819 35.8263C79.4537 33.7016 80.1577 31.3337 80.9047 29.2558C81.383 29.2648 81.8703 29.2108 82.2232 29.5333C82.8001 30.6308 81.5998 33.5449 81.0964 34.673Z" fill="url(#paint8_linear_174_682)"/>
<path d="M14.9873 25.7002C11.0461 26.4373 10.1128 29.5784 8.98955 33.0222C8.63484 34.1089 8.07054 35.5056 7.8287 36.5886C6.9706 40.4109 1.22727 50.8903 9.61118 49.9369C12.4058 49.3242 13.5738 47.7942 14.5573 45.1739C15.8006 41.8598 16.7715 38.425 17.9234 35.0767C19.1667 31.4976 21.311 25.2623 14.9908 25.7002H14.9873ZM15.6053 30.5732C15.3939 31.6634 15.0195 32.6979 14.6773 33.7503L13.0883 38.6232C12.4004 40.7389 11.6749 43.1411 10.8508 45.2118C10.6878 45.6227 10.2346 45.9939 9.87989 46.2444C9.48219 46.3507 9.28513 46.2912 8.97522 46.0389C8.47541 45.1667 9.48398 42.6005 9.80107 41.6292L11.2127 37.3005C11.9472 35.0406 12.696 32.5717 13.5667 30.3569C13.7404 29.9136 14.1596 29.5802 14.5287 29.3009C15.4512 29.245 15.7809 29.6685 15.6071 30.5696L15.6053 30.5732Z" fill="url(#paint9_linear_174_682)"/>
<path d="M68.9058 25.6516L61.9855 42.0815C61.0988 44.181 59.3897 47.9132 58.6929 49.9928L62.4208 49.9982C62.7487 49.1656 64.5025 44.4008 64.9038 44.1107L65.3713 44.0891L66.9603 44.1035C66.6845 45.6947 66.1058 48.4123 65.6741 49.9946H69.2498C69.54 49.117 69.7568 47.8843 69.9502 46.9508L70.9857 41.9752L74.4342 25.6606L68.9094 25.6534L68.9058 25.6516ZM69.9628 31.2345C69.282 34.1161 68.7106 37.1131 67.9528 39.9658L66.3584 39.9568C67.5336 37.1257 68.6998 33.7755 69.7818 30.8651C69.952 30.3389 70.1007 29.9136 70.3031 29.4C70.2333 30.1533 70.1509 30.4939 69.9628 31.2345Z" fill="url(#paint10_linear_174_682)"/>
<path d="M105.632 25.6534C104.837 27.9673 103.276 31.3265 102.273 33.7071L95.3867 49.9946H99.2114C99.5339 49.1188 101.135 44.7811 101.508 44.1611C101.8 44.0602 101.845 44.0818 102.149 44.0891L103.742 44.1125C103.325 46.0371 102.81 48.0735 102.441 49.9874L106.039 49.9982L109.439 33.9359C109.947 31.5121 110.583 27.9727 111.216 25.6714L105.63 25.6534H105.632ZM106.685 31.3967L104.72 39.9694L103.097 39.9496C104.285 37.05 105.367 33.9539 106.494 31.0129C106.614 30.584 106.685 30.2217 106.911 29.8397C107.038 30.1677 106.778 31.0201 106.685 31.3967Z" fill="url(#paint11_linear_174_682)"/>
<path d="M34.3256 4.95424C44.4203 2.27269 54.7677 0.677817 65.1974 0.193047C70.3496 -0.0754682 75.6486 -0.133138 80.7363 0.47778C92.1818 1.8546 102.649 6.65905 113.24 10.8958C113.939 11.1752 115.461 11.2761 116.246 11.3734C117.495 11.5266 118.738 11.7158 119.974 11.9429C129.628 13.7522 138.544 17.0627 146 23.626L145.93 23.8999C144.776 22.9502 142.503 21.5626 141.181 20.8471C131.76 15.7489 120.135 13.6801 109.525 13.1467C107.207 13.0404 104.883 12.9989 102.563 13.0223C102.04 13.0259 100.732 13.1521 100.417 13.1395C100.696 12.9701 103.412 12.5376 103.901 12.4511C105.786 12.1141 107.576 11.7933 109.417 11.231C108.478 11.0148 105.675 9.9371 104.657 9.57848C101.827 8.5747 98.9749 7.62679 96.1068 6.73294C77.2806 0.886865 67.6355 0.656192 48.6481 5.46424C49.9183 5.8517 51.7294 6.69689 53.0497 7.17265C57.032 8.60714 61.7113 10.157 65.9265 10.6399V10.9481C63.9935 10.9985 60.1635 10.5264 58.218 10.2579C50.101 9.13336 42.2205 7.11138 34.3274 4.95785L34.3256 4.95424Z" fill="url(#paint12_linear_174_682)"/>
<path d="M0 7.46099C7.12632 9.06668 21.7641 7.66283 29.0714 6.24997C30.8216 6.89152 32.0434 7.5547 33.9781 8.13679C40.4989 10.1029 47.2437 11.386 53.9669 12.4078C57.1396 12.9196 60.3247 13.3557 63.5171 13.7162L63.4185 14.0063C63.0835 14.0063 61.5877 13.8099 61.1667 13.7666L55.5129 13.1196C50.2354 12.5159 44.9506 11.6563 39.639 11.1085C27.3713 9.88485 9.56625 6.47704 2.45964 19.7785C1.83622 20.9444 1.38478 22.4438 0.802561 23.444L0.72553 23.3899C0.589381 22.8349 0.592964 22.2276 0.566092 21.6545C0.360077 17.3384 2.29841 13.0566 5.21665 9.9353C3.15292 9.48117 1.47793 9.00541 0.00358227 7.4628L0 7.46099Z" fill="url(#paint13_linear_174_682)"/>
<path d="M13.3999 20.7805C14.2777 19.5352 15.8702 18.2647 17.178 17.5132C23.8368 13.6891 33.0752 14.0171 39.2001 18.7297L39.0263 18.8864C32.6864 14.646 22.5469 15.1398 17.1493 20.7751L13.3981 20.7805H13.3999Z" fill="url(#paint14_linear_174_682)"/>
<path d="M101.571 22.5519C101.721 22.3429 101.879 22.1374 102.042 21.9356C105.555 17.6574 111.932 16.0805 117.194 16.9167C120.406 17.4267 122.984 18.5224 125.468 20.6165L125.176 20.6885C122.939 18.7783 118.509 17.7187 115.635 17.8718C111.295 18.1043 107.968 19.3856 105.012 22.5519H101.569H101.571Z" fill="url(#paint15_linear_174_682)"/>
<path d="M63.5152 13.7144C65.5539 13.9378 67.5459 14.1811 69.5918 14.3757L69.6383 14.5613C67.9275 14.5073 65.1347 14.1739 63.4167 14.0045L63.5152 13.7144Z" fill="url(#paint16_linear_174_682)"/>
<path d="M65.9266 10.6382C66.6826 10.7211 67.4207 10.7931 68.1623 10.9643C67.4064 11.0202 66.6808 10.9752 65.9266 10.9445V10.6364V10.6382Z" fill="url(#paint17_linear_174_682)"/>
<path d="M69.5938 14.3757C70.0792 14.437 71.3207 14.5397 71.6736 14.7578C71.1684 14.7344 70.1133 14.7019 69.6403 14.5595L69.5955 14.3739L69.5938 14.3757Z" fill="url(#paint18_linear_174_682)"/>
<path d="M125.468 20.6165C125.921 20.9805 126.045 21.0976 126.437 21.5265C126.185 21.4869 126.265 21.3968 125.92 21.2959L125.176 20.6885L125.468 20.6165Z" fill="url(#paint19_linear_174_682)"/>
<path d="M39.2 18.7296C39.4992 18.9603 39.7607 19.1531 40.0366 19.4145L39.8396 19.5172C39.6425 19.3406 39.2502 19.0594 39.0262 18.8864L39.2 18.7296Z" fill="url(#paint20_linear_174_682)"/>
<path d="M40.0367 19.4145C40.3001 19.6361 40.5777 19.8289 40.7264 20.1335C40.4452 20.1263 40.0708 19.7262 39.8397 19.5154L40.0367 19.4127V19.4145Z" fill="url(#paint21_linear_174_682)"/>
<path d="M125.922 21.2959C126.267 21.3968 126.187 21.4869 126.439 21.5265C126.708 21.75 127.129 22.3699 127.355 22.6781C126.93 22.3339 126.314 21.6941 125.922 21.2977V21.2959Z" fill="url(#paint22_linear_174_682)"/>
<defs>
<linearGradient id="paint0_linear_174_682" x1="-8.62413" y1="28.8287" x2="143.649" y2="69.8919" gradientUnits="userSpaceOnUse">
<stop stop-color="#FC4A1A"/>
<stop offset="1" stop-color="#F7B733"/>
</linearGradient>
<linearGradient id="paint1_linear_174_682" x1="-3.90926" y1="11.3463" x2="148.362" y2="52.4095" gradientUnits="userSpaceOnUse">
<stop stop-color="#FC4A1A"/>
<stop offset="1" stop-color="#F7B733"/>
</linearGradient>
<linearGradient id="paint2_linear_174_682" x1="-1.10741" y1="0.953534" x2="151.166" y2="42.0167" gradientUnits="userSpaceOnUse">
<stop stop-color="#FC4A1A"/>
<stop offset="1" stop-color="#F7B733"/>
</linearGradient>
<linearGradient id="paint3_linear_174_682" x1="-6.39175" y1="20.5498" x2="145.882" y2="61.6129" gradientUnits="userSpaceOnUse">
<stop stop-color="#FC4A1A"/>
<stop offset="1" stop-color="#F7B733"/>
</linearGradient>
<linearGradient id="paint4_linear_174_682" x1="-1.76418" y1="3.39001" x2="150.509" y2="44.4531" gradientUnits="userSpaceOnUse">
<stop stop-color="#FC4A1A"/>
<stop offset="1" stop-color="#F7B733"/>
</linearGradient>
<linearGradient id="paint5_linear_174_682" x1="-8.00955" y1="26.5508" x2="144.262" y2="67.614" gradientUnits="userSpaceOnUse">
<stop stop-color="#FC4A1A"/>
<stop offset="1" stop-color="#F7B733"/>
</linearGradient>
<linearGradient id="paint6_linear_174_682" x1="-7.34339" y1="24.0819" x2="144.928" y2="65.1451" gradientUnits="userSpaceOnUse">
<stop stop-color="#FC4A1A"/>
<stop offset="1" stop-color="#F7B733"/>
</linearGradient>
<linearGradient id="paint7_linear_174_682" x1="-2.53352" y1="6.24457" x2="149.738" y2="47.3078" gradientUnits="userSpaceOnUse">
<stop stop-color="#FC4A1A"/>
<stop offset="1" stop-color="#F7B733"/>
</linearGradient>
<linearGradient id="paint8_linear_174_682" x1="-5.01597" y1="15.448" x2="147.257" y2="56.5111" gradientUnits="userSpaceOnUse">
<stop stop-color="#FC4A1A"/>
<stop offset="1" stop-color="#F7B733"/>
</linearGradient>
<linearGradient id="paint9_linear_174_682" x1="-9.464" y1="31.9464" x2="142.808" y2="73.0095" gradientUnits="userSpaceOnUse">
<stop stop-color="#FC4A1A"/>
<stop offset="1" stop-color="#F7B733"/>
</linearGradient>
<linearGradient id="paint10_linear_174_682" x1="-5.73064" y1="18.0989" x2="146.543" y2="59.1621" gradientUnits="userSpaceOnUse">
<stop stop-color="#FC4A1A"/>
<stop offset="1" stop-color="#F7B733"/>
</linearGradient>
<linearGradient id="paint11_linear_174_682" x1="-3.21382" y1="8.76573" x2="149.06" y2="49.8289" gradientUnits="userSpaceOnUse">
<stop stop-color="#FC4A1A"/>
<stop offset="1" stop-color="#F7B733"/>
</linearGradient>
<linearGradient id="paint12_linear_174_682" x1="2.55635" y1="-12.6326" x2="154.83" y2="28.4305" gradientUnits="userSpaceOnUse">
<stop stop-color="#FC4A1A"/>
<stop offset="1" stop-color="#F7B733"/>
</linearGradient>
<linearGradient id="paint13_linear_174_682" x1="-3.25324" y1="8.91531" x2="149.018" y2="49.9785" gradientUnits="userSpaceOnUse">
<stop stop-color="#FC4A1A"/>
<stop offset="1" stop-color="#F7B733"/>
</linearGradient>
<linearGradient id="paint14_linear_174_682" x1="-3.77819" y1="10.8598" x2="148.493" y2="51.923" gradientUnits="userSpaceOnUse">
<stop stop-color="#FC4A1A"/>
<stop offset="1" stop-color="#F7B733"/>
</linearGradient>
<linearGradient id="paint15_linear_174_682" x1="1.7663" y1="-9.6988" x2="154.038" y2="31.3644" gradientUnits="userSpaceOnUse">
<stop stop-color="#FC4A1A"/>
<stop offset="1" stop-color="#F7B733"/>
</linearGradient>
<linearGradient id="paint16_linear_174_682" x1="0.202417" y1="-3.90309" x2="152.476" y2="37.1602" gradientUnits="userSpaceOnUse">
<stop stop-color="#FC4A1A"/>
<stop offset="1" stop-color="#F7B733"/>
</linearGradient>
<linearGradient id="paint17_linear_174_682" x1="1.05162" y1="-7.05335" x2="153.325" y2="34.0097" gradientUnits="userSpaceOnUse">
<stop stop-color="#FC4A1A"/>
<stop offset="1" stop-color="#F7B733"/>
</linearGradient>
<linearGradient id="paint18_linear_174_682" x1="0.372673" y1="-4.53574" x2="152.646" y2="36.5274" gradientUnits="userSpaceOnUse">
<stop stop-color="#FC4A1A"/>
<stop offset="1" stop-color="#F7B733"/>
</linearGradient>
<linearGradient id="paint19_linear_174_682" x1="2.54934" y1="-12.6039" x2="154.821" y2="28.4589" gradientUnits="userSpaceOnUse">
<stop stop-color="#FC4A1A"/>
<stop offset="1" stop-color="#F7B733"/>
</linearGradient>
<linearGradient id="paint20_linear_174_682" x1="-2.88623" y1="7.55111" x2="149.387" y2="48.6145" gradientUnits="userSpaceOnUse">
<stop stop-color="#FC4A1A"/>
<stop offset="1" stop-color="#F7B733"/>
</linearGradient>
<linearGradient id="paint21_linear_174_682" x1="-2.99182" y1="7.94217" x2="149.282" y2="49.0055" gradientUnits="userSpaceOnUse">
<stop stop-color="#FC4A1A"/>
<stop offset="1" stop-color="#F7B733"/>
</linearGradient>
<linearGradient id="paint22_linear_174_682" x1="2.36648" y1="-11.9279" x2="154.64" y2="29.1353" gradientUnits="userSpaceOnUse">
<stop stop-color="#FC4A1A"/>
<stop offset="1" stop-color="#F7B733"/>
</linearGradient>
</defs>
</svg>
