<svg width="20" height="22" viewBox="0 0 20 22" fill="none" xmlns="http://www.w3.org/2000/svg">
<path d="M5.20007 2.9079L9.70007 5.5079L14.2001 2.9079M5.20007 18.4879V13.2979L0.700073 10.6979M18.7001 10.6979L14.2001 13.2979V18.4879M0.970073 5.6579L9.70007 10.7079L18.4301 5.6579M9.70007 20.7779V10.6979M18.7001 14.6979V6.6979C18.6997 6.34717 18.6071 6.00271 18.4316 5.69906C18.2561 5.39542 18.0038 5.14326 17.7001 4.9679L10.7001 0.9679C10.396 0.792364 10.0511 0.699951 9.70007 0.699951C9.349 0.699951 9.00411 0.792364 8.70007 0.9679L1.70007 4.9679C1.39634 5.14326 1.14405 5.39542 0.968535 5.69906C0.793016 6.00271 0.700433 6.34717 0.700073 6.6979V14.6979C0.700433 15.0486 0.793016 15.3931 0.968535 15.6967C1.14405 16.0004 1.39634 16.2525 1.70007 16.4279L8.70007 20.4279C9.00411 20.6034 9.349 20.6959 9.70007 20.6959C10.0511 20.6959 10.396 20.6034 10.7001 20.4279L17.7001 16.4279C18.0038 16.2525 18.2561 16.0004 18.4316 15.6967C18.6071 15.3931 18.6997 15.0486 18.7001 14.6979Z" stroke="white" stroke-width="1.4" stroke-linecap="round" stroke-linejoin="round"/>
</svg>
