<svg width="20" height="20" viewBox="0 0 20 20" fill="none" xmlns="http://www.w3.org/2000/svg">
<path d="M0.700012 15.7V9.69995C0.700012 7.313 1.64822 5.02382 3.33605 3.33599C5.02388 1.64816 7.31306 0.699951 9.70001 0.699951C12.087 0.699951 14.3761 1.64816 16.064 3.33599C17.7518 5.02382 18.7 7.313 18.7 9.69995V15.7M18.7 16.7C18.7 17.2304 18.4893 17.7391 18.1142 18.1142C17.7392 18.4892 17.2304 18.7 16.7 18.7H15.7C15.1696 18.7 14.6609 18.4892 14.2858 18.1142C13.9107 17.7391 13.7 17.2304 13.7 16.7V13.7C13.7 13.1695 13.9107 12.6608 14.2858 12.2857C14.6609 11.9107 15.1696 11.7 15.7 11.7H18.7V16.7ZM0.700012 16.7C0.700012 17.2304 0.910726 17.7391 1.2858 18.1142C1.66087 18.4892 2.16958 18.7 2.70001 18.7H3.70001C4.23045 18.7 4.73915 18.4892 5.11423 18.1142C5.4893 17.7391 5.70001 17.2304 5.70001 16.7V13.7C5.70001 13.1695 5.4893 12.6608 5.11423 12.2857C4.73915 11.9107 4.23045 11.7 3.70001 11.7H0.700012V16.7Z" stroke="white" stroke-width="1.4" stroke-linecap="round" stroke-linejoin="round"/>
</svg>
